<?xml version="1.0" encoding="UTF-8" standalone="no"?>
<svg
   xmlns:dc="http://purl.org/dc/elements/1.1/"
   xmlns:cc="http://creativecommons.org/ns#"
   xmlns:rdf="http://www.w3.org/1999/02/22-rdf-syntax-ns#"
   xmlns:svg="http://www.w3.org/2000/svg"
   xmlns="http://www.w3.org/2000/svg"
   xmlns:sodipodi="http://sodipodi.sourceforge.net/DTD/sodipodi-0.dtd"
   xmlns:inkscape="http://www.inkscape.org/namespaces/inkscape"
   version="1.0"
   width="24pt"
   height="24pt"
   viewBox="0 0 24 24"
   preserveAspectRatio="xMidYMid meet"
   id="svg59"
   sodipodi:docname="biohazard-symbol.svg"
   inkscape:version="0.92.4 (5da689c313, 2019-01-14)">
  <defs
     id="defs63" />
  <sodipodi:namedview
     pagecolor="#ffffff"
     bordercolor="#666666"
     borderopacity="1"
     objecttolerance="10"
     gridtolerance="10"
     guidetolerance="10"
     inkscape:pageopacity="0"
     inkscape:pageshadow="2"
     inkscape:window-width="1858"
     inkscape:window-height="1057"
     id="namedview61"
     showgrid="false"
     inkscape:zoom="2.8370608"
     inkscape:cx="130.446"
     inkscape:cy="-21.924715"
     inkscape:window-x="54"
     inkscape:window-y="-8"
     inkscape:window-maximized="1"
     inkscape:current-layer="g57" />
  <metadata
     id="metadata43">
Created by potrace 1.15, written by Peter Selinger 2001-2017
<rdf:RDF>
  <cc:Work
     rdf:about="">
    <dc:format>image/svg+xml</dc:format>
    <dc:type
       rdf:resource="http://purl.org/dc/dcmitype/StillImage" />
  </cc:Work>
</rdf:RDF>
</metadata>
  <g
     transform="matrix(0.00120231,0,0,-0.00127837,-0.00510982,24.001984)"
     id="g57"
     style="fill:#000000;stroke:none"
     inkscape:export-filename="C:\Users\mrblo\g57.png"
     inkscape:export-xdpi="96"
     inkscape:export-ydpi="96">
    <path
       d="m 10665.789,18726.443 c 1242.005,-270 2222.009,-904 2850.011,-1844 620.002,-928 856.003,-2103.999 638.002,-3193.999 -272.001,-1371.999 -1142.004,-2449.999 -2438.009,-3023.999 -396.001,-174 -878.003,-310 -1316.005,-370 l -184,-24 4,-437.9996 6,-437.9998 110,-34 c 60,-20 186.001,-74 278.001,-122 488.002,-253.9999 748.003,-785.9997 640.003,-1301.9996 -48.001,-227.9999 -72.001,-197.9999 332.001,-429.9998 198.001,-116 370.001,-206 382.001,-204 12,4 104.001,106 202.001,226 1068.004,1307.9995 2600.01,1903.9994 4134.015,1607.9995 1346.005,-258 2520.01,-1173.9997 3088.012,-2407.9993 438.001,-951.9997 488.001,-2065.9993 144,-3149.9989 -72,-230 -74,-266 -8,-120 118.001,259.9999 274.001,761.9997 346.001,1109.9996 82.001,411.9999 92.001,529.9999 92.001,1099.9997 0,495.9998 -6,589.9998 -46,829.9997 -114.001,647.9998 -314.002,1233.9996 -610.003,1769.9994 -820.003,1489.9995 -2278.008,2541.9991 -3976.014,2869.9991 l -112.001,22 68,180 c 250.001,664 358.002,1405.999 310.002,2123.999 -62.001,918 -300.001,1722 -742.003,2497.999 -850.003,1492 -2288.009,2478 -4052.015,2776 -326.001,54 -410.002,48 -140.001,-12 z"
       id="path45"
       inkscape:connector-curvature="0"
       style="stroke-width:2.00000334" />
    <path
       d="m 9111.7837,18708.443 c -1614.006,-236 -3004.0111,-1130 -3866.0143,-2490 -772.0029,-1219.999 -1050.0039,-2755.999 -758.0028,-4197.998 50.0002,-248 128.0004,-542 206.0007,-764 l 38.0002,-112 -174.0007,-26 c -238.0008,-34 -666.0024,-146 -898.0033,-232 -764.0028,-286 -1416.0052,-704 -1994.0074,-1277.9995 C 781.75287,8726.4458 249.75091,7682.4461 41.750139,6414.4465 c -50.0001852,-297.9999 -50.0001852,-1271.9996 0,-1595.9994 46.00017,-299.9999 122.000451,-633.9998 208.000771,-919.9997 78.00029,-260 220.00081,-639.9998 252.00093,-669.9998 14.00005,-14 16.00006,-8 6.00002,20 -384.00142,1079.9996 -408.001507,2155.9993 -70.00026,3121.9989 88.00033,252 298.0011,669.9998 452.00167,901.9998 538.00203,799.9997 1336.00493,1405.9995 2246.00833,1705.9994 1512.0056,495.9998 3088.0114,114 4268.0157,-1037.9997 212.0008,-207.9999 450.0017,-473.9998 562.0021,-625.9998 l 40.0002,-55.9999 360.0013,211.9999 c 198.0007,116 368.0014,217.9999 376.0014,225.9999 10,10 2,86 -14.0001,168 -142.0005,681.9997 222.0009,1307.9995 864.0032,1485.9995 l 124.0005,34 v 443.9998 443.9996 l -174.0006,24 c -444.0017,60 -960.0036,208 -1370.0051,392 -1606.0059,722 -2554.0095,2287.999 -2454.0091,4055.999 10.0001,176 32.0001,396 50.0002,492 318.0012,1747.999 1568.0058,3027.999 3358.0124,3431.999 318.0012,72 312.0012,88 -14,40 z"
       id="path47"
       inkscape:connector-curvature="0"
       style="stroke-width:2.00000334" />
    <path
       d="m 9795.7862,13424.444 c -1010.0037,-44 -1928.0071,-346 -2776.0103,-911.999 l -206.0007,-136 340.0012,-354 c 186.0007,-194 402.0015,-416 480.0018,-492 l 140.0005,-138 176.0007,114 c 802.0029,522 1846.0068,684 2916.0106,452 384.002,-84 862.003,-274 1202.005,-478 l 102,-62 454.002,470 c 250.001,258 448.001,478 442.001,490 -6,10 -86,72 -176,136 -678.003,489.999 -1494.006,797.999 -2324.009,879.999 -256.001,26 -584.0021,40 -770.0028,30 z"
       id="path49"
       inkscape:connector-curvature="0"
       style="stroke-width:2.00000334" />
    <path
       d="m 4707.7674,8618.4458 c -6,-44 -22.0001,-217.9999 -32.0001,-385.9999 -48.0002,-699.9997 94.0003,-1487.9995 388.0014,-2173.9992 438.0016,-1011.9997 1224.0045,-1899.9994 2184.0081,-2465.9992 262.0009,-152 582.0021,-305.9999 602.0022,-286 16.0001,14 370.0014,1293.9996 362.0013,1301.9996 -4,4 -80.0003,42 -170.0006,88 -314.0012,155.9999 -538.002,315.9999 -814.003,581.9998 -326.0012,313.9999 -570.0021,653.9998 -794.0029,1109.9996 -288.0011,589.9999 -412.0016,1071.9997 -432.0016,1685.9995 -10.0001,309.9999 -14.0001,325.9999 -54.0002,333.9999 -22.0001,6 -298.0011,74 -608.0023,149.9999 -312.0011,78 -578.0021,140 -594.0022,140 -14,0 -30.0001,-34 -38.0001,-80 z"
       id="path51"
       inkscape:connector-curvature="0"
       style="stroke-width:2.00000334" />
    <path
       d="m 14559.804,8522.4459 -646.003,-170 14,-251.9999 c 30.001,-571.9998 -108,-1163.9996 -406.001,-1747.9994 -218.001,-427.9999 -450.002,-741.9998 -816.003,-1103.9997 -266.001,-265.9999 -502.002,-445.9998 -796.003,-613.9998 -122,-70 -162.001,-104 -158.001,-129.9999 10,-54 346.002,-1213.9997 356.002,-1223.9996 14,-14 356.001,141.9999 574.002,259.9999 1062.004,581.9998 1896.007,1595.9995 2308.008,2807.9991 210.001,619.9998 302.002,1243.9996 278.001,1899.9993 -12,349.9999 -24,451.9999 -50,447.9999 -6,-2 -302.001,-80 -658.002,-173.9999 z"
       id="path53"
       inkscape:connector-curvature="0"
       style="stroke-width:2.00000334" />
    <path
       d="m 8629.7819,7070.4463 c -196.0007,-113.9999 -366.0014,-215.9999 -378.0014,-227.9999 -16.0001,-16 0,-78 60.0002,-231.9999 C 8565.7816,5964.4467 8671.782,5364.4469 8649.782,4678.4471 8635.7819,4250.4472 8583.7817,3946.4473 8453.7812,3550.4475 7951.7794,2020.448 6539.7742,890.44833 4887.768,696.44839 4599.767,662.4484 3941.7646,684.4484 3685.7636,734.44838 2773.7602,916.44832 2059.7576,1308.4482 1361.755,2012.448 c -158.0006,157.9999 -286.001,279.9999 -286.001,273.9999 0,-54 544.002,-667.9998 780.0028,-881.9997 C 2731.7601,614.44842 3827.7641,130.44858 4991.7684,16.448613 c 302.0012,-29.99999 1086.004,-11.9999959 1350.005,29.99999 996.0037,161.999947 1858.0069,519.999827 2620.0097,1089.999597 274.001,206 496.0018,403.9999 762.0028,685.9998 l 238.0009,251.9999 144.0002,-173.9999 c 642.003,-767.9997 1590.006,-1379.99955 2592.01,-1669.99946 582.002,-167.999942 984.004,-221.9999242 1648.006,-219.999925 562.002,0 846.003,31.99999 1290.005,137.999955 1254.004,303.9999 2396.009,1049.99963 3202.012,2095.99933 56,74 100,137.9999 96,143.9999 -6,4 -76,-69.9999 -158.001,-163.9999 -168,-191.9999 -474.001,-473.9998 -700.002,-645.9998 C 16991.813,754.44837 15669.808,486.44846 14395.803,832.44835 12951.798,1222.4482 11809.794,2330.4479 11409.792,3728.4474 c -136,477.9999 -186.001,1067.9997 -136,1579.9995 44,439.9999 200,1057.9997 354.001,1405.9995 26,60 48,120 48,132 0,26 -704.002,431.9999 -748.003,431.9999 -14,0 -46,-24 -74,-52 -90,-98 -322.001,-245.9999 -478.002,-305.9999 -450.0013,-174 -896.003,-88 -1274.0044,249.9999 l -118.0004,104 z"
       id="path55"
       inkscape:connector-curvature="0"
       style="stroke-width:2.00000334" />
  </g>
</svg>
